# xmcd CD database file
#
# Track frame offsets:
#	150
#	10238
#	21879
#	29316
#	40286
#	53061
#	66429
#	74145
#	82625
#	95964
#	108353
#	118350
#
# Disc length: 1693 seconds
#
# Revision: 0
# Processed by: cddbd v1.5.2PL0 Copyright (c) Steve Scherf et al.
# Submitted via: CDex 1.70beta2
#
DISCID=a7069b0c
DTITLE=Soares Claudette - Gil-Chico-Veloso Por Claudette - Gil-Chico-Veloso Por Claudette
DYEAR=1968
DGENRE=Brasiliana
TTITLE0=Januaria (Chico Buarque De Hollanda)
TTITLE1=Lia (Caetano Veloso-Gilberto Gil)
TTITLE2=Frevo Rasgado (Bruno Ferreira-Gilberto Gil)
TTITLE3=Desencontro (Chico Buarque De Hollanda) 
TTITLE4=Deus Vos Salve Esta Casa Santa (Caetano Veloso-Torquato Netto)
TTITLE5=Mancada (Gilberto Gil)
TTITLE6=Bandolim (Chico Buarque De Hollanda) 
TTITLE7=Remexelo (Caetano Veloso)
TTITLE8=Domingou (Gilberto Gil-Torquato Netto)
TTITLE9=Lua Cheia (Chico Buarque De Hollanda-Toquinho) 
TTITLE10=(con Gilberto Gil) Clara (Cateano Veloso)
TTITLE11=(con Gilberto Gil) Iemanja (Gilberto Gil-Othon Bastos)
EXTD=YEAR: 1968
EXTT0=
EXTT1=
EXTT2=
EXTT3=
EXTT4=
EXTT5=
EXTT6=
EXTT7=
EXTT8=
EXTT9=
EXTT10=
EXTT11=
PLAYORDER=
